<?xml version="1.0" encoding="UTF-8" standalone="no"?>
<!-- Created with Inkscape (http://www.inkscape.org/) -->

<svg
   width="100mm"
   height="100mm"
   viewBox="0 0 100 100"
   version="1.1"
   id="svg31"
   inkscape:version="1.1.1 (3bf5ae0d25, 2021-09-20)"
   sodipodi:docname="Atom White Background.svg"
   xmlns:inkscape="http://www.inkscape.org/namespaces/inkscape"
   xmlns:sodipodi="http://sodipodi.sourceforge.net/DTD/sodipodi-0.dtd"
   xmlns="http://www.w3.org/2000/svg"
   xmlns:svg="http://www.w3.org/2000/svg">
  <sodipodi:namedview
     id="namedview33"
     pagecolor="#ffffff"
     bordercolor="#666666"
     borderopacity="1.0"
     inkscape:pageshadow="2"
     inkscape:pageopacity="0.0"
     inkscape:pagecheckerboard="0"
     inkscape:document-units="mm"
     showgrid="false"
     inkscape:zoom="1.0230034"
     inkscape:cx="22.971576"
     inkscape:cy="10.263896"
     inkscape:window-width="2400"
     inkscape:window-height="1271"
     inkscape:window-x="2391"
     inkscape:window-y="-9"
     inkscape:window-maximized="1"
     inkscape:current-layer="layer2" />
  <defs
     id="defs28" />
  <g
     inkscape:groupmode="layer"
     id="layer2"
     inkscape:label="Ebene 2">
    <rect
       style="opacity:1;fill:#ffffff;stroke-width:0.264583"
       id="rect182"
       width="159.31847"
       height="126.73059"
       x="-20.69071"
       y="-16.552568"
       rx="1.0088351"
       ry="1.0088351" />
  </g>
  <g
     inkscape:label="Ebene 1"
     inkscape:groupmode="layer"
     id="layer1"
     style="opacity:1">
    <circle
       style="fill:none;stroke:#000000;stroke-width:5.33557;stroke-linejoin:round;stroke-miterlimit:4;stroke-dasharray:none;stroke-opacity:1;paint-order:markers fill stroke"
       id="path5880-36-8-3"
       cx="49.279011"
       cy="46.63401"
       r="9.7162256" />
    <ellipse
       style="fill:#ffffff;fill-opacity:0;stroke:#000000;stroke-width:6.23358;stroke-linejoin:round;stroke-miterlimit:4;stroke-dasharray:none;stroke-opacity:1;paint-order:markers fill stroke"
       id="path5984-78-6-5"
       cx="93.320221"
       cy="61.810604"
       rx="28.064894"
       ry="39.154045"
       transform="matrix(1,0,-0.68062757,0.73262959,0,0)" />
    <ellipse
       style="fill:#ffffff;fill-opacity:0;stroke:#000000;stroke-width:6.41858;stroke-linejoin:round;stroke-miterlimit:4;stroke-dasharray:none;stroke-opacity:1;paint-order:markers fill stroke"
       id="path5984-7-5-1-3"
       cx="-0.55653238"
       cy="69.21611"
       rx="34.48901"
       ry="34.425289"
       transform="matrix(1,0,0.72285574,0.69099897,0,0)" />
    <ellipse
       style="fill:#ffffff;fill-opacity:0;stroke:#000000;stroke-width:5.33557;stroke-linejoin:round;stroke-miterlimit:4;stroke-dasharray:none;stroke-opacity:1;paint-order:markers fill stroke"
       id="path7422-28-1-4"
       cx="49.149517"
       cy="48.319267"
       rx="18.427191"
       ry="40.306988" />
    <circle
       style="fill:#000000;fill-opacity:1;stroke:#000000;stroke-width:0.88926;stroke-linejoin:round;stroke-miterlimit:4;stroke-dasharray:none;stroke-opacity:1;paint-order:markers fill stroke"
       id="path8549-0-1"
       cx="13.032612"
       cy="24.068806"
       r="7.7902465" />
    <circle
       style="fill:#000000;fill-opacity:1;stroke:#000000;stroke-width:0.88926;stroke-linejoin:round;stroke-miterlimit:4;stroke-dasharray:none;stroke-opacity:1;paint-order:markers fill stroke"
       id="path8549-3-9-5"
       cx="42.065563"
       cy="87.407158"
       r="7.7902465" />
    <circle
       style="fill:#000000;fill-opacity:1;stroke:#000000;stroke-width:0.88926;stroke-linejoin:round;stroke-miterlimit:4;stroke-dasharray:none;stroke-opacity:1;paint-order:markers fill stroke"
       id="path8549-4-2-3"
       cx="88.28183"
       cy="29.532545"
       r="7.7902465" />
    <path
       style="fill:none;stroke:none;stroke-width:0.977514"
       d="m 179.36746,201.49065 c -4.90806,-1.61038 -8.52705,-3.99217 -12.13666,-7.98758 -6.48991,-7.18355 -8.51418,-15.19772 -6.01242,-23.80345 3.43975,-11.83232 12.97144,-19.16249 24.9177,-19.16249 13.47519,0 23.96161,9.14175 25.98815,22.65568 1.47536,9.83838 -4.97797,21.52668 -14.59374,26.43228 -4.25829,2.17242 -14.13576,3.18695 -18.16303,1.86556 z"
       id="path50"
       transform="scale(0.26458333)" />
    <path
       style="fill:none;stroke-width:0.977514"
       d="m 179.36746,201.49065 c -4.90806,-1.61038 -8.52705,-3.99217 -12.13666,-7.98758 -6.48991,-7.18355 -8.51418,-15.19772 -6.01242,-23.80345 3.43975,-11.83232 12.97144,-19.16249 24.9177,-19.16249 13.47519,0 23.96161,9.14175 25.98815,22.65568 1.47536,9.83838 -4.97797,21.52668 -14.59374,26.43228 -4.25829,2.17242 -14.13576,3.18695 -18.16303,1.86556 z"
       id="path215"
       transform="scale(0.26458333)" />
    <path
       style="fill:none;stroke-width:0.691207"
       d="m 177.88935,200.92359 c -7.15625,-2.43927 -12.66257,-7.51683 -15.88076,-14.64416 -1.25632,-2.78235 -1.56638,-4.73408 -1.59212,-10.02173 -0.0294,-6.03182 0.15061,-6.94173 2.21048,-11.17551 8.68113,-17.84294 32.97687,-20.1243 44.72798,-4.19994 2.8707,3.89018 5.19112,10.763 5.19112,15.37545 0,10.98064 -7.84897,21.50096 -18.56258,24.88026 -5.67984,1.79154 -10.39346,1.72875 -16.09412,-0.21437 z"
       id="path1005"
       transform="scale(0.26458333)" />
    <path
       style="fill:none;stroke-width:0.691207"
       d="m 177.88935,200.92359 c -7.15625,-2.43927 -12.66257,-7.51683 -15.88076,-14.64416 -1.25632,-2.78235 -1.56638,-4.73408 -1.59212,-10.02173 -0.0294,-6.03182 0.15061,-6.94173 2.21048,-11.17551 8.68113,-17.84294 32.97687,-20.1243 44.72798,-4.19994 2.8707,3.89018 5.19112,10.763 5.19112,15.37545 0,10.98064 -7.84897,21.50096 -18.56258,24.88026 -5.67984,1.79154 -10.39346,1.72875 -16.09412,-0.21437 z"
       id="path1081"
       transform="scale(0.26458333)" />
    <path
       style="fill:none;stroke-width:0.691207"
       d="m 177.88935,200.92359 c -7.15625,-2.43927 -12.66257,-7.51683 -15.88076,-14.64416 -1.25632,-2.78235 -1.56638,-4.73408 -1.59212,-10.02173 -0.0294,-6.03182 0.15061,-6.94173 2.21048,-11.17551 8.68113,-17.84294 32.97687,-20.1243 44.72798,-4.19994 2.8707,3.89018 5.19112,10.763 5.19112,15.37545 0,10.98064 -7.84897,21.50096 -18.56258,24.88026 -5.67984,1.79154 -10.39346,1.72875 -16.09412,-0.21437 z"
       id="path1120"
       transform="scale(0.26458333)" />
    <path
       style="fill:none;stroke-width:0.691207"
       d="m 177.88935,200.92359 c -7.15625,-2.43927 -12.66257,-7.51683 -15.88076,-14.64416 -1.25632,-2.78235 -1.56638,-4.73408 -1.59212,-10.02173 -0.0294,-6.03182 0.15061,-6.94173 2.21048,-11.17551 8.68113,-17.84294 32.97687,-20.1243 44.72798,-4.19994 2.8707,3.89018 5.19112,10.763 5.19112,15.37545 0,10.98064 -7.84897,21.50096 -18.56258,24.88026 -5.67984,1.79154 -10.39346,1.72875 -16.09412,-0.21437 z"
       id="path1159"
       transform="scale(0.26458333)" />
    <path
       style="fill:none;stroke-width:0.691207"
       d="m 177.88935,200.92359 c -7.15625,-2.43927 -12.66257,-7.51683 -15.88076,-14.64416 -1.25632,-2.78235 -1.56638,-4.73408 -1.59212,-10.02173 -0.0294,-6.03182 0.15061,-6.94173 2.21048,-11.17551 8.68113,-17.84294 32.97687,-20.1243 44.72798,-4.19994 2.8707,3.89018 5.19112,10.763 5.19112,15.37545 0,10.98064 -7.84897,21.50096 -18.56258,24.88026 -5.67984,1.79154 -10.39346,1.72875 -16.09412,-0.21437 z"
       id="path1198"
       transform="scale(0.26458333)" />
    <path
       style="fill:none;stroke-width:0.244378"
       d="m 183.89479,202.68883 c -4.61042,-0.53899 -8.95952,-2.12126 -12.57639,-4.57548 -2.12201,-1.43989 -5.27577,-4.56292 -6.72538,-6.65986 -8.06344,-11.66417 -5.82854,-27.08177 5.20542,-35.91003 8.99768,-7.19903 21.50426,-7.68457 31.32504,-1.21613 1.90055,1.2518 5.63537,4.96202 6.91317,6.86765 3.08663,4.6032 4.6948,9.78385 4.6948,15.12408 0,9.87899 -5.69415,19.09584 -14.54052,23.53604 -2.23321,1.1209 -4.42759,1.90062 -6.7204,2.38791 -1.66792,0.35448 -6.11729,0.61632 -7.57574,0.44582 z"
       id="path1348"
       transform="scale(0.26458333)" />
    <path
       style="fill:none;stroke-width:0.244378"
       d="m 183.89479,202.68883 c -4.61042,-0.53899 -8.95952,-2.12126 -12.57639,-4.57548 -2.12201,-1.43989 -5.27577,-4.56292 -6.72538,-6.65986 -8.06344,-11.66417 -5.82854,-27.08177 5.20542,-35.91003 8.99768,-7.19903 21.50426,-7.68457 31.32504,-1.21613 1.90055,1.2518 5.63537,4.96202 6.91317,6.86765 3.08663,4.6032 4.6948,9.78385 4.6948,15.12408 0,9.87899 -5.69415,19.09584 -14.54052,23.53604 -2.23321,1.1209 -4.42759,1.90062 -6.7204,2.38791 -1.66792,0.35448 -6.11729,0.61632 -7.57574,0.44582 z"
       id="path1387"
       transform="scale(0.26458333)" />
    <path
       style="fill:none;stroke-width:0.244378"
       d="m 183.89479,202.68883 c -4.61042,-0.53899 -8.95952,-2.12126 -12.57639,-4.57548 -2.12201,-1.43989 -5.27577,-4.56292 -6.72538,-6.65986 -8.06344,-11.66417 -5.82854,-27.08177 5.20542,-35.91003 8.99768,-7.19903 21.50426,-7.68457 31.32504,-1.21613 1.90055,1.2518 5.63537,4.96202 6.91317,6.86765 3.08663,4.6032 4.6948,9.78385 4.6948,15.12408 0,9.87899 -5.69415,19.09584 -14.54052,23.53604 -2.23321,1.1209 -4.42759,1.90062 -6.7204,2.38791 -1.66792,0.35448 -6.11729,0.61632 -7.57574,0.44582 z"
       id="path1426"
       transform="scale(0.26458333)" />
    <path
       style="fill:none;stroke-width:0.244378"
       d="m 183.89479,202.68883 c -4.61042,-0.53899 -8.95952,-2.12126 -12.57639,-4.57548 -2.12201,-1.43989 -5.27577,-4.56292 -6.72538,-6.65986 -8.06344,-11.66417 -5.82854,-27.08177 5.20542,-35.91003 8.99768,-7.19903 21.50426,-7.68457 31.32504,-1.21613 1.90055,1.2518 5.63537,4.96202 6.91317,6.86765 3.08663,4.6032 4.6948,9.78385 4.6948,15.12408 0,9.87899 -5.69415,19.09584 -14.54052,23.53604 -2.23321,1.1209 -4.42759,1.90062 -6.7204,2.38791 -1.66792,0.35448 -6.11729,0.61632 -7.57574,0.44582 z"
       id="path1465"
       transform="scale(0.26458333)" />
    <path
       style="fill:none;stroke-width:0.244378"
       d="m 183.89479,202.68883 c -4.61042,-0.53899 -8.95952,-2.12126 -12.57639,-4.57548 -2.12201,-1.43989 -5.27577,-4.56292 -6.72538,-6.65986 -8.06344,-11.66417 -5.82854,-27.08177 5.20542,-35.91003 8.99768,-7.19903 21.50426,-7.68457 31.32504,-1.21613 1.90055,1.2518 5.63537,4.96202 6.91317,6.86765 3.08663,4.6032 4.6948,9.78385 4.6948,15.12408 0,9.87899 -5.69415,19.09584 -14.54052,23.53604 -2.23321,1.1209 -4.42759,1.90062 -6.7204,2.38791 -1.66792,0.35448 -6.11729,0.61632 -7.57574,0.44582 z"
       id="path1504"
       transform="scale(0.26458333)" />
    <path
       style="fill:none;stroke-width:0.244378"
       d="m 183.89479,202.68883 c -4.61042,-0.53899 -8.95952,-2.12126 -12.57639,-4.57548 -2.12201,-1.43989 -5.27577,-4.56292 -6.72538,-6.65986 -8.06344,-11.66417 -5.82854,-27.08177 5.20542,-35.91003 8.99768,-7.19903 21.50426,-7.68457 31.32504,-1.21613 1.90055,1.2518 5.63537,4.96202 6.91317,6.86765 3.08663,4.6032 4.6948,9.78385 4.6948,15.12408 0,9.87899 -5.69415,19.09584 -14.54052,23.53604 -2.23321,1.1209 -4.42759,1.90062 -6.7204,2.38791 -1.66792,0.35448 -6.11729,0.61632 -7.57574,0.44582 z"
       id="path1543"
       transform="scale(0.26458333)" />
    <path
       style="fill:none;stroke-width:0.244378"
       d="m 183.89479,202.68883 c -4.61042,-0.53899 -8.95952,-2.12126 -12.57639,-4.57548 -2.12201,-1.43989 -5.27577,-4.56292 -6.72538,-6.65986 -8.06344,-11.66417 -5.82854,-27.08177 5.20542,-35.91003 8.99768,-7.19903 21.50426,-7.68457 31.32504,-1.21613 1.90055,1.2518 5.63537,4.96202 6.91317,6.86765 3.08663,4.6032 4.6948,9.78385 4.6948,15.12408 0,9.87899 -5.69415,19.09584 -14.54052,23.53604 -2.23321,1.1209 -4.42759,1.90062 -6.7204,2.38791 -1.66792,0.35448 -6.11729,0.61632 -7.57574,0.44582 z"
       id="path1582"
       transform="scale(0.26458333)" />
    <path
       style="fill:none;stroke-width:0.244378"
       d="m 183.89479,202.68883 c -4.61042,-0.53899 -8.95952,-2.12126 -12.57639,-4.57548 -2.12201,-1.43989 -5.27577,-4.56292 -6.72538,-6.65986 -8.06344,-11.66417 -5.82854,-27.08177 5.20542,-35.91003 8.99768,-7.19903 21.50426,-7.68457 31.32504,-1.21613 1.90055,1.2518 5.63537,4.96202 6.91317,6.86765 3.08663,4.6032 4.6948,9.78385 4.6948,15.12408 0,9.87899 -5.69415,19.09584 -14.54052,23.53604 -2.23321,1.1209 -4.42759,1.90062 -6.7204,2.38791 -1.66792,0.35448 -6.11729,0.61632 -7.57574,0.44582 z"
       id="path1621"
       transform="scale(0.26458333)" />
    <path
       style="fill:none;stroke-width:0.244378"
       d="m 183.89479,202.68883 c -4.61042,-0.53899 -8.95952,-2.12126 -12.57639,-4.57548 -2.12201,-1.43989 -5.27577,-4.56292 -6.72538,-6.65986 -8.06344,-11.66417 -5.82854,-27.08177 5.20542,-35.91003 8.99768,-7.19903 21.50426,-7.68457 31.32504,-1.21613 1.90055,1.2518 5.63537,4.96202 6.91317,6.86765 3.08663,4.6032 4.6948,9.78385 4.6948,15.12408 0,9.87899 -5.69415,19.09584 -14.54052,23.53604 -2.23321,1.1209 -4.42759,1.90062 -6.7204,2.38791 -1.66792,0.35448 -6.11729,0.61632 -7.57574,0.44582 z"
       id="path1660"
       transform="scale(0.26458333)" />
    <path
       style="fill:none;stroke-width:0.244378"
       d="m 183.89479,202.68883 c -4.61042,-0.53899 -8.95952,-2.12126 -12.57639,-4.57548 -2.12201,-1.43989 -5.27577,-4.56292 -6.72538,-6.65986 -8.06344,-11.66417 -5.82854,-27.08177 5.20542,-35.91003 8.99768,-7.19903 21.50426,-7.68457 31.32504,-1.21613 1.90055,1.2518 5.63537,4.96202 6.91317,6.86765 3.08663,4.6032 4.6948,9.78385 4.6948,15.12408 0,9.87899 -5.69415,19.09584 -14.54052,23.53604 -2.23321,1.1209 -4.42759,1.90062 -6.7204,2.38791 -1.66792,0.35448 -6.11729,0.61632 -7.57574,0.44582 z"
       id="path1921"
       transform="scale(0.26458333)" />
    <path
       style="fill:none;stroke-width:0.244378"
       d="m 183.89479,202.68883 c -4.61042,-0.53899 -8.95952,-2.12126 -12.57639,-4.57548 -2.12201,-1.43989 -5.27577,-4.56292 -6.72538,-6.65986 -8.06344,-11.66417 -5.82854,-27.08177 5.20542,-35.91003 8.99768,-7.19903 21.50426,-7.68457 31.32504,-1.21613 1.90055,1.2518 5.63537,4.96202 6.91317,6.86765 3.08663,4.6032 4.6948,9.78385 4.6948,15.12408 0,9.87899 -5.69415,19.09584 -14.54052,23.53604 -2.23321,1.1209 -4.42759,1.90062 -6.7204,2.38791 -1.66792,0.35448 -6.11729,0.61632 -7.57574,0.44582 z"
       id="path1960"
       transform="scale(0.26458333)" />
    <rect
       style="fill:#ffffff;stroke-width:0.264583"
       id="rect98"
       width="137.07594"
       x="-17.069836"
       y="-16.811203"
       rx="1.0088351"
       ry="1.0088351" />
    <rect
       style="fill:#ffffff;stroke-width:0.264583"
       id="rect175"
       width="123.88562"
       x="-7.7590165"
       y="-5.4313111"
       rx="1.0088351"
       ry="1.0088351" />
  </g>
</svg>
